# xmcd
# Copyright (C) 1995-1998 Ti Kan
#
# Track frame offsets:
#       150
#       18832
#       33247
#       58752
#       73117
#       90375
#       101340
#       116200
#       133845
#       155477
#       169747
#       194275
#       204617
#       223740
#
# Disc length: 3325 seconds
#
# Revision: 0
# Processed by: cddbd v1.5.2PL0 Copyright (c) Steve Scherf et al.
# Submitted via: CD-Import v1.0
#
DISCID=c60cfb0e
DTITLE=Various Artist - Sweet Relief - A Benefit For Victoria Williams
DYEAR=1993
DGENRE=
TTITLE0=Soul Asylum - Summer Of Drugs
TTITLE1=Lucinda Williams - Main Road
TTITLE2=Pearl Jam - Crazy Mary
TTITLE3=Buffalo Tom - Merry Go Round
TTITLE4=Michael Penn - Weeds
TTITLE5=Shudder To Think - Animal Wild
TTITLE6=Lou Reed - Tarbelly And Featherfoot
TTITLE7=Maria Mckee - Opelousas (Sweet Relief)
TTITLE8=Matthew Sweet - This Moment
TTITLE9=Evan Dando Of Lemonheads - Frying Pan
TTITLE10=The Jayhawks - Lights
TTITLE11=He Waterboys - Why Look At The Moon
TTITLE12=	giant Sand - Big Fish
TTITLE13=Michelle Shocked - Holy Spirit
EXTD=
EXTT0=
EXTT1=
EXTT2=
EXTT3=
EXTT4=
EXTT5=
EXTT6=
EXTT7=
EXTT8=
EXTT9=
EXTT10=
EXTT11=
EXTT12=
EXTT13=
PLAYORDER=
